<?xml version="1.0" encoding="UTF-8"?>
<!-- Created with Inkscape (http://www.inkscape.org/) -->
<svg width="203.64mm" height="23.562mm" version="1.1" viewBox="0 0 203.64501 23.562493" xmlns="http://www.w3.org/2000/svg" xmlns:cc="http://creativecommons.org/ns#" xmlns:dc="http://purl.org/dc/elements/1.1/" xmlns:rdf="http://www.w3.org/1999/02/22-rdf-syntax-ns#">
 <defs>
  <marker id="marker7673" overflow="visible" orient="auto">
   <path transform="scale(-.6)" d="m8.7186 4.0337-10.926-4.0177 10.926-4.0177c-1.7455 2.3721-1.7354 5.6175-6e-7 8.0354z" fill-rule="evenodd" stroke="#000" stroke-linejoin="round" stroke-width=".625"/>
  </marker>
  <marker id="marker7627" overflow="visible" orient="auto">
   <path transform="matrix(.4 0 0 .4 2.96 .4)" d="m-2.5-1c0 2.76-2.24 5-5 5s-5-2.24-5-5 2.24-5 5-5 5 2.24 5 5z" fill-rule="evenodd" stroke="#000" stroke-width="1pt"/>
  </marker>
  <marker id="marker7559" overflow="visible" orient="auto">
   <path transform="scale(-.6)" d="m8.7186 4.0337-10.926-4.0177 10.926-4.0177c-1.7455 2.3721-1.7354 5.6175-6e-7 8.0354z" fill-rule="evenodd" stroke="#000" stroke-linejoin="round" stroke-width=".625"/>
  </marker>
  <marker id="marker7525" overflow="visible" orient="auto">
   <path transform="matrix(.4 0 0 .4 2.96 .4)" d="m-2.5-1c0 2.76-2.24 5-5 5s-5-2.24-5-5 2.24-5 5-5 5 2.24 5 5z" fill-rule="evenodd" stroke="#000" stroke-width="1pt"/>
  </marker>
  <marker id="DotM" overflow="visible" orient="auto">
   <path transform="matrix(.4 0 0 .4 2.96 .4)" d="m-2.5-1c0 2.76-2.24 5-5 5s-5-2.24-5-5 2.24-5 5-5 5 2.24 5 5z" fill-rule="evenodd" stroke="#000" stroke-width="1pt"/>
  </marker>
  <marker id="Arrow2Mend" overflow="visible" orient="auto">
   <path transform="scale(-.6)" d="m8.7186 4.0337-10.926-4.0177 10.926-4.0177c-1.7455 2.3721-1.7354 5.6175-6e-7 8.0354z" fill-rule="evenodd" stroke="#000" stroke-linejoin="round" stroke-width=".625"/>
  </marker>
 </defs>
 <metadata>
  <rdf:RDF>
   <cc:Work rdf:about="">
    <dc:format>image/svg+xml</dc:format>
    <dc:type rdf:resource="http://purl.org/dc/dcmitype/StillImage"/>
    <dc:title/>
   </cc:Work>
  </rdf:RDF>
 </metadata>
 <g transform="translate(-54.977 -68.357)">
  <text x="65.343605" y="91.708954" fill="#ff0000" font-family="Calibri" font-size="8.4667px" font-style="italic" letter-spacing="0px" stroke="#ff0000" stroke-width=".26458px" word-spacing="0px" style="font-feature-settings:normal;font-variant-caps:normal;font-variant-ligatures:normal;font-variant-numeric:normal;line-height:125%" xml:space="preserve"><tspan x="65.343605" y="91.708954">head</tspan></text>
  <g>
   <rect x="55.377" y="68.757" width="39.332" height="16.005" rx="2" ry="2" fill="#d3d3d3" stroke="#808080" stroke-width=".8"/>
   <text x="56.756321" y="79.477135" fill="#000000" font-family="Calibri" font-size="8.4667px" letter-spacing="0px" stroke-width=".26458px" word-spacing="0px" style="font-feature-settings:normal;font-variant-caps:normal;font-variant-ligatures:normal;font-variant-numeric:normal;line-height:125%" xml:space="preserve"><tspan x="56.756321" y="79.477135">valor</tspan></text>
   <text x="77.144791" y="73.313896" fill="#000000" font-family="Calibri" font-size="4.2333px" letter-spacing="0px" stroke-width=".26458px" word-spacing="0px" style="font-feature-settings:normal;font-variant-caps:normal;font-variant-ligatures:normal;font-variant-numeric:normal;line-height:125%" xml:space="preserve"><tspan x="77.144791" y="73.313896">siguiente</tspan></text>
  </g>
  <path d="m75.28 84.599v-15.875" fill="#808080" fill-rule="evenodd" stroke="#808080" stroke-width=".6"/>
  <path d="m84.089 77.751h24.404" fill="none" marker-end="url(#Arrow2Mend)" marker-start="url(#DotM)" stroke="#000" stroke-width=".4"/>
  <g transform="translate(54.504)">
   <g>
    <rect x="55.377" y="68.757" width="39.332" height="16.005" rx="2" ry="2" fill="#d3d3d3" stroke="#808080" stroke-width=".8"/>
    <text x="56.756321" y="79.477135" fill="#000000" font-family="Calibri" font-size="8.4667px" letter-spacing="0px" stroke-width=".26458px" word-spacing="0px" style="font-feature-settings:normal;font-variant-caps:normal;font-variant-ligatures:normal;font-variant-numeric:normal;line-height:125%" xml:space="preserve"><tspan x="56.756321" y="79.477135">valor</tspan></text>
    <text x="77.144791" y="73.313896" fill="#000000" font-family="Calibri" font-size="4.2333px" letter-spacing="0px" stroke-width=".26458px" word-spacing="0px" style="font-feature-settings:normal;font-variant-caps:normal;font-variant-ligatures:normal;font-variant-numeric:normal;line-height:125%" xml:space="preserve"><tspan x="77.144791" y="73.313896">siguiente</tspan></text>
   </g>
   <path d="m75.28 84.599v-15.875" fill="#808080" fill-rule="evenodd" stroke="#808080" stroke-width=".6"/>
  </g>
  <path d="m138.59 77.751h24.404" fill="none" marker-end="url(#marker7559)" marker-start="url(#marker7525)" stroke="#000" stroke-width=".4"/>
  <g transform="translate(109.01)">
   <g>
    <rect x="55.377" y="68.757" width="39.332" height="16.005" rx="2" ry="2" fill="#d3d3d3" stroke="#808080" stroke-width=".8"/>
    <text x="56.756321" y="79.477135" fill="#000000" font-family="Calibri" font-size="8.4667px" letter-spacing="0px" stroke-width=".26458px" word-spacing="0px" style="font-feature-settings:normal;font-variant-caps:normal;font-variant-ligatures:normal;font-variant-numeric:normal;line-height:125%" xml:space="preserve"><tspan x="56.756321" y="79.477135">valor</tspan></text>
    <text x="77.144791" y="73.313896" fill="#000000" font-family="Calibri" font-size="4.2333px" letter-spacing="0px" stroke-width=".26458px" word-spacing="0px" style="font-feature-settings:normal;font-variant-caps:normal;font-variant-ligatures:normal;font-variant-numeric:normal;line-height:125%" xml:space="preserve"><tspan x="77.144791" y="73.313896">siguiente</tspan></text>
   </g>
   <path d="m75.28 84.599v-15.875" fill="#808080" fill-rule="evenodd" stroke="#808080" stroke-width=".6"/>
  </g>
  <path d="m193.1 77.751h24.404" fill="none" marker-end="url(#marker7673)" marker-start="url(#marker7627)" stroke="#000" stroke-width=".4"/>
  <g transform="translate(163.51)">
   <g>
    <rect x="55.377" y="68.757" width="39.332" height="16.005" rx="2" ry="2" fill="#d3d3d3" stroke="#808080" stroke-width=".8"/>
    <text x="56.756321" y="79.477135" fill="#000000" font-family="Calibri" font-size="8.4667px" letter-spacing="0px" stroke-width=".26458px" word-spacing="0px" style="font-feature-settings:normal;font-variant-caps:normal;font-variant-ligatures:normal;font-variant-numeric:normal;line-height:125%" xml:space="preserve"><tspan x="56.756321" y="79.477135">valor</tspan></text>
    <text x="77.144791" y="73.313896" fill="#000000" font-family="Calibri" font-size="4.2333px" letter-spacing="0px" stroke-width=".26458px" word-spacing="0px" style="font-feature-settings:normal;font-variant-caps:normal;font-variant-ligatures:normal;font-variant-numeric:normal;line-height:125%" xml:space="preserve"><tspan x="77.144791" y="73.313896">siguiente</tspan></text>
   </g>
   <path d="m75.28 84.599v-15.875" fill="#808080" fill-rule="evenodd" stroke="#808080" stroke-width=".6"/>
  </g>
  <ellipse cx="248.23" cy="77.748" rx=".91409" ry=".83792" stroke="#000" stroke-width=".4"/>
  <text x="235.20587" y="91.708954" fill="#ff0000" font-family="Calibri" font-size="8.4667px" font-style="italic" letter-spacing="0px" stroke="#ff0000" stroke-width=".26458px" word-spacing="0px" style="font-feature-settings:normal;font-variant-caps:normal;font-variant-ligatures:normal;font-variant-numeric:normal;line-height:125%" xml:space="preserve"><tspan x="235.20587" y="91.708954">tail</tspan></text>
 </g>
</svg>
