<?xml version="1.0" encoding="UTF-8"?>
<!-- Created with Inkscape (http://www.inkscape.org/) -->
<svg width="173.62mm" height="118.4mm" enable-background="new" version="1.1" viewBox="0 0 173.61648 118.39904" xmlns="http://www.w3.org/2000/svg" xmlns:cc="http://creativecommons.org/ns#" xmlns:dc="http://purl.org/dc/elements/1.1/" xmlns:rdf="http://www.w3.org/1999/02/22-rdf-syntax-ns#" xmlns:xlink="http://www.w3.org/1999/xlink">
 <defs>
  <filter id="filter8622" color-interpolation-filters="sRGB">
   <feBlend in2="BackgroundImage" mode="hue"/>
  </filter>
  <marker id="marker9484-2" overflow="visible" orient="auto">
   <path transform="scale(-.6)" d="m8.7186 4.0337-10.926-4.0177 10.926-4.0177c-1.7455 2.3721-1.7354 5.6175 0 8.0354z" fill-rule="evenodd" stroke="#000" stroke-linejoin="round" stroke-width=".625"/>
  </marker>
  <marker id="marker9586-8" overflow="visible" orient="auto">
   <path transform="scale(-.6)" d="m8.7186 4.0337-10.926-4.0177 10.926-4.0177c-1.7455 2.3721-1.7354 5.6175 0 8.0354z" fill-rule="evenodd" stroke="#000" stroke-linejoin="round" stroke-width=".625"/>
  </marker>
  <marker id="marker9388-1" overflow="visible" orient="auto">
   <path transform="scale(-.6)" d="m8.7186 4.0337-10.926-4.0177 10.926-4.0177c-1.7455 2.3721-1.7354 5.6175 0 8.0354z" fill-rule="evenodd" stroke="#000" stroke-linejoin="round" stroke-width=".625"/>
  </marker>
  <marker id="marker9298-1" overflow="visible" orient="auto">
   <path transform="scale(-.6)" d="m8.7186 4.0337-10.926-4.0177 10.926-4.0177c-1.7455 2.3721-1.7354 5.6175 0 8.0354z" fill-rule="evenodd" stroke="#000" stroke-linejoin="round" stroke-width=".625"/>
  </marker>
  <marker id="marker9112-8" overflow="visible" orient="auto">
   <path transform="scale(-.6)" d="m8.7186 4.0337-10.926-4.0177 10.926-4.0177c-1.7455 2.3721-1.7354 5.6175 0 8.0354z" fill-rule="evenodd" stroke="#000" stroke-linejoin="round" stroke-width=".625"/>
  </marker>
  <marker id="marker9040-1" overflow="visible" orient="auto">
   <path transform="scale(-.6)" d="m8.7186 4.0337-10.926-4.0177 10.926-4.0177c-1.7455 2.3721-1.7354 5.6175 0 8.0354z" fill-rule="evenodd" stroke="#000" stroke-linejoin="round" stroke-width=".625"/>
  </marker>
  <marker id="marker8974-0" overflow="visible" orient="auto">
   <path transform="scale(-.6)" d="m8.7186 4.0337-10.926-4.0177 10.926-4.0177c-1.7455 2.3721-1.7354 5.6175 0 8.0354z" fill-rule="evenodd" stroke="#000" stroke-linejoin="round" stroke-width=".625"/>
  </marker>
  <marker id="marker8908-8" overflow="visible" orient="auto">
   <path transform="scale(-.6)" d="m8.7186 4.0337-10.926-4.0177 10.926-4.0177c-1.7455 2.3721-1.7354 5.6175 0 8.0354z" fill-rule="evenodd" stroke="#000" stroke-linejoin="round" stroke-width=".625"/>
  </marker>
  <marker id="marker8830-7" overflow="visible" orient="auto">
   <path transform="scale(-.6)" d="m8.7186 4.0337-10.926-4.0177 10.926-4.0177c-1.7455 2.3721-1.7354 5.6175 0 8.0354z" fill-rule="evenodd" stroke="#000" stroke-linejoin="round" stroke-width=".625"/>
  </marker>
  <marker id="Arrow2Mend-1" overflow="visible" orient="auto">
   <path transform="scale(-.6)" d="m8.7186 4.0337-10.926-4.0177 10.926-4.0177c-1.7455 2.3721-1.7354 5.6175 0 8.0354z" fill-rule="evenodd" stroke="#000" stroke-linejoin="round" stroke-width=".625"/>
  </marker>
  <filter id="filter8622-4" color-interpolation-filters="sRGB">
   <feBlend in2="BackgroundImage" mode="hue"/>
  </filter>
 </defs>
 <metadata>
  <rdf:RDF>
   <cc:Work rdf:about="">
    <dc:format>image/svg+xml</dc:format>
    <dc:type rdf:resource="http://purl.org/dc/dcmitype/StillImage"/>
    <dc:title/>
   </cc:Work>
  </rdf:RDF>
 </metadata>
 <g fill="none" stroke="#000" stroke-miterlimit="2.6">
  <g stroke-width="1.5118">
   <path transform="matrix(.26458 0 0 .26458 1.6556 1.6565)" d="m531.87 300.52-18.315 45.521" enable-background="new" filter="url(#filter8622)" marker-end="url(#marker9484-2)"/>
   <path transform="matrix(.26458 0 0 .26458 1.6556 1.6565)" d="m587.13 296.18 13.116 50.941" enable-background="new" filter="url(#filter8622)" marker-end="url(#marker9586-8)"/>
   <path transform="matrix(.26458 0 0 .26458 1.6556 1.6565)" d="m321.59 303.05-12.896 45.521" enable-background="new" filter="url(#filter8622)" marker-end="url(#marker9388-1)"/>
   <path transform="matrix(.26458 0 0 .26458 1.6556 1.6565)" d="m373.62 62.44 45.631 52.026" enable-background="new" filter="url(#filter8622)" marker-end="url(#marker9298-1)"/>
   <path transform="matrix(.26458 0 0 .26458 1.6556 1.6565)" d="m100.49 299.43-42.161 52.026" enable-background="new" filter="url(#filter8622)" marker-end="url(#marker9112-8)"/>
   <path transform="matrix(.26458 0 0 .26458 1.6556 1.6565)" d="m478.27 168.8 67.306 65.031" enable-background="new" filter="url(#filter8622)" marker-end="url(#marker9040-1)"/>
   <path transform="matrix(.26458 0 0 .26458 1.6556 1.6565)" d="m412.17 170.31-54.082 61.781" enable-background="new" filter="url(#filter8622)" marker-end="url(#marker8974-0)"/>
  </g>
  <path transform="matrix(.26458 0 0 .26458 1.6556 1.6565)" d="m449.02 180.99-3.1417 53.106" enable-background="new" filter="url(#filter8622)" marker-end="url(#marker8908-8)" stroke-width="1.512"/>
  <path transform="matrix(.26458 0 0 .26458 1.6556 1.6565)" d="m315.72 63.782-52.997 49.856" enable-background="new" filter="url(#filter8622)" marker-end="url(#marker8830-7)" stroke-width="1.5118"/>
 </g>
 <use transform="translate(151.34)" width="100%" height="100%" enable-background="new" filter="url(#filter8622)" xlink:href="#use8670"/>
 <use transform="translate(124.88)" width="100%" height="100%" enable-background="new" filter="url(#filter8622)" xlink:href="#use8670"/>
 <use transform="translate(71.967)" width="100%" height="100%" enable-background="new" filter="url(#filter8622)" xlink:href="#use8670"/>
 <use id="use8670" transform="translate(-25.4 29.633)" width="100%" height="100%" enable-background="new" filter="url(#filter8622)" xlink:href="#use8664"/>
 <use id="use8664" transform="translate(-57.15)" width="100%" height="100%" enable-background="new" filter="url(#filter8622)" xlink:href="#use8658"/>
 <use id="use8658" transform="translate(-25.4)" width="100%" height="100%" enable-background="new" filter="url(#filter8622)" xlink:href="#circle8650"/>
 <g fill="#8fbc8f" stroke="#556b2f">
  <g stroke-width="1.5118">
   <circle id="circle8650" transform="matrix(.26458 0 0 .26458 1.6556 1.6565)" cx="443.84" cy="273.79" r="35.084" enable-background="new" fill="#8fbc8f" filter="url(#filter8622)" stroke="#556b2f" stroke-width="1.5118"/>
   <circle transform="matrix(.26458 0 0 .26458 1.6556 1.6565)" cx="559.84" cy="273.79" r="35.084" enable-background="new" filter="url(#filter8622)"/>
   <circle transform="matrix(.26458 0 0 .26458 1.6556 1.6565)" cx="445.85" cy="143.79" r="35.084" enable-background="new" filter="url(#filter8622)"/>
   <circle transform="matrix(.26458 0 0 .26458 1.6556 1.6565)" cx="235.85" cy="143.79" r="35.084" enable-background="new" filter="url(#filter8622)"/>
  </g>
  <circle transform="matrix(.26458 0 0 .26458 1.6556 1.6565)" cx="347.16" cy="35.84" r="35.084" enable-background="new" filter="url(#filter8622)" stroke-width="1.512"/>
 </g>
 <path transform="matrix(.26458 0 0 .26458 1.6556 1.6565)" d="m205.16 169.59-55.166 67.197" enable-background="new" fill="none" filter="url(#filter8622)" marker-end="url(#Arrow2Mend-1)" stroke="#000" stroke-miterlimit="2.6" stroke-width="1.5118"/>
 <g fill="#000000" font-family="Calibri" letter-spacing="0px" stroke-width=".99999px" word-spacing="0px">
  <g font-size="32px">
   <text transform="matrix(.26458 0 0 .26458 1.6556 1.6565)" x="299.73788" y="393.36905" enable-background="new" filter="url(#filter8622)" style="font-feature-settings:normal;font-variant-caps:normal;font-variant-ligatures:normal;font-variant-numeric:normal;line-height:125%" xml:space="preserve"><tspan x="299.73788" y="393.36905" font-family="Calibri" font-size="32px" stroke-width=".99999px" style="font-feature-settings:normal;font-variant-caps:normal;font-variant-ligatures:normal;font-variant-numeric:normal">8</tspan></text>
   <text transform="matrix(.26458 0 0 .26458 1.6556 1.6565)" x="123.90854" y="281.79333" enable-background="new" filter="url(#filter8622)" style="font-feature-settings:normal;font-variant-caps:normal;font-variant-ligatures:normal;font-variant-numeric:normal;line-height:125%" xml:space="preserve"><tspan x="123.90854" y="281.79333" font-family="Calibri" font-size="32px" stroke-width=".99999px" style="font-feature-settings:normal;font-variant-caps:normal;font-variant-ligatures:normal;font-variant-numeric:normal">9</tspan></text>
   <text transform="matrix(.26458 0 0 .26458 1.6556 1.6565)" x="339.8866" y="282.81778" enable-background="new" filter="url(#filter8622)" style="font-feature-settings:normal;font-variant-caps:normal;font-variant-ligatures:normal;font-variant-numeric:normal;line-height:125%" xml:space="preserve"><tspan x="339.8866" y="282.81778" font-family="Calibri" font-size="32px" stroke-width=".99999px" style="font-feature-settings:normal;font-variant-caps:normal;font-variant-ligatures:normal;font-variant-numeric:normal">5</tspan></text>
   <text transform="matrix(.26458 0 0 .26458 1.6556 1.6565)" x="599.53796" y="395.53674" enable-background="new" filter="url(#filter8622)" style="font-feature-settings:normal;font-variant-caps:normal;font-variant-ligatures:normal;font-variant-numeric:normal;line-height:125%" xml:space="preserve"><tspan x="599.53796" y="395.53674" font-family="Calibri" font-size="32px" stroke-width=".99999px" style="font-feature-settings:normal;font-variant-caps:normal;font-variant-ligatures:normal;font-variant-numeric:normal">6</tspan></text>
   <text transform="matrix(.26458 0 0 .26458 1.6556 1.6565)" x="491.1929" y="399.8721" enable-background="new" filter="url(#filter8622)" style="font-feature-settings:normal;font-variant-caps:normal;font-variant-ligatures:normal;font-variant-numeric:normal;line-height:125%" xml:space="preserve"><tspan x="491.1929" y="399.8721" font-family="Calibri" font-size="32px" stroke-width=".99999px" style="font-feature-settings:normal;font-variant-caps:normal;font-variant-ligatures:normal;font-variant-numeric:normal">15</tspan></text>
  </g>
  <text transform="matrix(.26458 0 0 .26458 1.6556 1.6565)" x="6.9761167" y="439.45074" enable-background="new" filter="url(#filter8622)" font-size="24px" style="font-feature-settings:normal;font-variant-caps:normal;font-variant-ligatures:normal;font-variant-numeric:normal;line-height:125%" xml:space="preserve"><tspan x="6.9761167" y="439.45074" stroke-width=".99999px">ID: 8</tspan></text>
  <g font-size="24px">
   <text transform="matrix(.26458 0 0 .26458 1.6556 1.6565)" x="324.7673" y="327.45001" enable-background="new" filter="url(#filter8622)" style="font-feature-settings:normal;font-variant-caps:normal;font-variant-ligatures:normal;font-variant-numeric:normal;line-height:125%" xml:space="preserve"><tspan x="324.7673" y="327.45001" stroke-width=".99999px">ID: 4</tspan></text>
   <text transform="matrix(.26458 0 0 .26458 1.6556 1.6565)" x="578.74683" y="439.45074" enable-background="new" filter="url(#filter8622)" style="font-feature-settings:normal;font-variant-caps:normal;font-variant-ligatures:normal;font-variant-numeric:normal;line-height:125%" xml:space="preserve"><tspan x="578.74683" y="439.45074" stroke-width=".99999px">ID: 10</tspan></text>
   <text transform="matrix(.26458 0 0 .26458 1.6556 1.6565)" x="485.03268" y="439.45074" enable-background="new" filter="url(#filter8622)" style="font-feature-settings:normal;font-variant-caps:normal;font-variant-ligatures:normal;font-variant-numeric:normal;line-height:125%" xml:space="preserve"><tspan x="485.03268" y="439.45074" stroke-width=".99999px">ID: 9</tspan></text>
  </g>
  <text transform="matrix(.26458 0 0 .26458 1.6556 1.6565)" x="284.91357" y="439.45074" enable-background="new" filter="url(#filter8622)" font-size="24px" style="font-feature-settings:normal;font-variant-caps:normal;font-variant-ligatures:normal;font-variant-numeric:normal;line-height:125%" xml:space="preserve"><tspan x="284.91357" y="439.45074" stroke-width=".99999px">ID: 7</tspan></text>
  <text transform="matrix(.26458 0 0 .26458 1.6556 1.6565)" x="27.821953" y="395.9024" enable-background="new" filter="url(#filter8622)" font-size="32px" style="font-feature-settings:normal;font-variant-caps:normal;font-variant-ligatures:normal;font-variant-numeric:normal;line-height:125%" xml:space="preserve"><tspan x="27.821953" y="395.9024" stroke-width=".99999px">4</tspan></text>
  <text transform="matrix(.26458 0 0 .26458 1.6556 1.6565)" x="109.08813" y="327.45001" enable-background="new" filter="url(#filter8622)" font-size="24px" style="font-feature-settings:normal;font-variant-caps:normal;font-variant-ligatures:normal;font-variant-numeric:normal;line-height:125%" xml:space="preserve"><tspan x="109.08813" y="327.45001" stroke-width=".99999px">ID: 2</tspan></text>
  <text transform="matrix(.26458 0 0 .26458 1.6556 1.6565)" x="426.7153" y="283.90164" enable-background="new" filter="url(#filter8622)" font-size="32px" style="font-feature-settings:normal;font-variant-caps:normal;font-variant-ligatures:normal;font-variant-numeric:normal;line-height:125%" xml:space="preserve"><tspan x="426.7153" y="283.90164" stroke-width=".99999px">14</tspan></text>
  <text transform="matrix(.26458 0 0 .26458 1.6556 1.6565)" x="421.1254" y="327.45001" enable-background="new" filter="url(#filter8622)" font-size="24px" style="font-feature-settings:normal;font-variant-caps:normal;font-variant-ligatures:normal;font-variant-numeric:normal;line-height:125%" xml:space="preserve"><tspan x="421.1254" y="327.45001" stroke-width=".99999px">ID: 5</tspan></text>
  <text transform="matrix(.26458 0 0 .26458 1.6556 1.6565)" x="543.14435" y="283.90164" enable-background="new" filter="url(#filter8622)" font-size="32px" style="font-feature-settings:normal;font-variant-caps:normal;font-variant-ligatures:normal;font-variant-numeric:normal;line-height:125%" xml:space="preserve"><tspan x="543.14435" y="283.90164" stroke-width=".99999px">20</tspan></text>
  <text transform="matrix(.26458 0 0 .26458 1.6556 1.6565)" x="536.76349" y="327.45001" enable-background="new" filter="url(#filter8622)" font-size="24px" style="font-feature-settings:normal;font-variant-caps:normal;font-variant-ligatures:normal;font-variant-numeric:normal;line-height:125%" xml:space="preserve"><tspan x="536.76349" y="327.45001" stroke-width=".99999px">ID: 6</tspan></text>
  <text transform="matrix(.26458 0 0 .26458 1.6556 1.6565)" x="429.14514" y="153.90068" enable-background="new" filter="url(#filter8622)" font-size="32px" style="font-feature-settings:normal;font-variant-caps:normal;font-variant-ligatures:normal;font-variant-numeric:normal;line-height:125%" xml:space="preserve"><tspan x="429.14514" y="153.90068" stroke-width=".99999px">12</tspan></text>
  <text transform="matrix(.26458 0 0 .26458 1.6556 1.6565)" x="423.07285" y="197.44917" enable-background="new" filter="url(#filter8622)" font-size="24px" style="font-feature-settings:normal;font-variant-caps:normal;font-variant-ligatures:normal;font-variant-numeric:normal;line-height:125%" xml:space="preserve"><tspan x="423.07285" y="197.44917" stroke-width=".99999px">ID: 3</tspan></text>
  <text transform="matrix(.26458 0 0 .26458 1.6556 1.6565)" x="227.75319" y="153.90068" enable-background="new" filter="url(#filter8622)" font-size="32px" style="font-feature-settings:normal;font-variant-caps:normal;font-variant-ligatures:normal;font-variant-numeric:normal;line-height:125%" xml:space="preserve"><tspan x="227.75319" y="153.90068" stroke-width=".99999px">8</tspan></text>
  <text transform="matrix(.26458 0 0 .26458 1.6556 1.6565)" x="213.07146" y="197.44917" enable-background="new" filter="url(#filter8622)" font-size="24px" style="font-feature-settings:normal;font-variant-caps:normal;font-variant-ligatures:normal;font-variant-numeric:normal;line-height:125%" xml:space="preserve"><tspan x="213.07146" y="197.44917" stroke-width=".99999px">ID: 1</tspan></text>
  <text transform="matrix(.26458 0 0 .26458 1.6556 1.6565)" x="324.15158" y="89.498726" enable-background="new" filter="url(#filter8622)" font-size="24px" style="font-feature-settings:normal;font-variant-caps:normal;font-variant-ligatures:normal;font-variant-numeric:normal;line-height:125%" xml:space="preserve"><tspan x="324.15158" y="89.498726" stroke-width=".99999px">ID: 0</tspan></text>
  <text transform="matrix(.26458 0 0 .26458 1.6556 1.6565)" x="330.12231" y="45.950218" enable-background="new" filter="url(#filter8622)" font-size="32px" style="font-feature-settings:normal;font-variant-caps:normal;font-variant-ligatures:normal;font-variant-numeric:normal;line-height:125%" xml:space="preserve"><tspan x="330.12231" y="45.950218" stroke-width=".99999px">10</tspan></text>
 </g>
 <g fill="#ff0000" font-family="Calibri" font-size="32px" letter-spacing="0px" stroke-width=".99999px" word-spacing="0px">
  <text transform="matrix(.26458 0 0 .26458 78.21 3.0439)" x="2.183217" y="16.947763" enable-background="new" filter="url(#filter8622-4)" style="font-feature-settings:normal;font-variant-caps:normal;font-variant-ligatures:normal;font-variant-numeric:normal;line-height:125%" xml:space="preserve"><tspan x="2.183217" y="16.947763">0</tspan></text>
  <text transform="matrix(.26458 0 0 .26458 50.025 24.536)" x="2.183217" y="16.947763" enable-background="new" filter="url(#filter8622-4)" style="font-feature-settings:normal;font-variant-caps:normal;font-variant-ligatures:normal;font-variant-numeric:normal;line-height:125%" xml:space="preserve"><tspan x="2.183217" y="16.947763">1</tspan></text>
  <text transform="matrix(.26458 0 0 .26458 26.741 59.482)" x="2.183217" y="16.947763" enable-background="new" filter="url(#filter8622-4)" style="font-feature-settings:normal;font-variant-caps:normal;font-variant-ligatures:normal;font-variant-numeric:normal;line-height:125%" xml:space="preserve"><tspan x="2.183217" y="16.947763">3</tspan></text>
  <text transform="matrix(.26458 0 0 .26458 2.1917 91.267)" x="2.183217" y="16.947763" enable-background="new" filter="url(#filter8622-4)" style="font-feature-settings:normal;font-variant-caps:normal;font-variant-ligatures:normal;font-variant-numeric:normal;line-height:125%" xml:space="preserve"><tspan x="2.183217" y="16.947763">7</tspan></text>
  <text transform="matrix(.26458 0 0 .26458 111.27 24.556)" x="2.183217" y="16.947763" enable-background="new" filter="url(#filter8622-4)" style="font-feature-settings:normal;font-variant-caps:normal;font-variant-ligatures:normal;font-variant-numeric:normal;line-height:125%" xml:space="preserve"><tspan x="2.183217" y="16.947763">2</tspan></text>
  <text transform="matrix(.26458 0 0 .26458 80.902 59.482)" x="2.183217" y="16.947763" enable-background="new" filter="url(#filter8622-4)" style="font-feature-settings:normal;font-variant-caps:normal;font-variant-ligatures:normal;font-variant-numeric:normal;line-height:125%" xml:space="preserve"><tspan x="2.183217" y="16.947763">4</tspan></text>
  <text transform="matrix(.26458 0 0 .26458 70.525 91.28)" x="2.183217" y="16.947763" enable-background="new" filter="url(#filter8622-4)" style="font-feature-settings:normal;font-variant-caps:normal;font-variant-ligatures:normal;font-variant-numeric:normal;line-height:125%" xml:space="preserve"><tspan x="2.183217" y="16.947763">8</tspan></text>
  <text transform="matrix(.26458 0 0 .26458 107.73 59.443)" x="2.183217" y="16.947763" enable-background="new" filter="url(#filter8622-4)" style="font-feature-settings:normal;font-variant-caps:normal;font-variant-ligatures:normal;font-variant-numeric:normal;line-height:125%" xml:space="preserve"><tspan x="2.183217" y="16.947763">5</tspan></text>
  <text transform="matrix(.26458 0 0 .26458 135.57 59.48)" x="2.183217" y="16.947763" enable-background="new" filter="url(#filter8622-4)" style="font-feature-settings:normal;font-variant-caps:normal;font-variant-ligatures:normal;font-variant-numeric:normal;line-height:125%" xml:space="preserve"><tspan x="2.183217" y="16.947763">6</tspan></text>
  <text transform="matrix(.26458 0 0 .26458 122.66 91.28)" x="2.183217" y="16.947763" enable-background="new" filter="url(#filter8622-4)" style="font-feature-settings:normal;font-variant-caps:normal;font-variant-ligatures:normal;font-variant-numeric:normal;line-height:125%" xml:space="preserve"><tspan x="2.183217" y="16.947763">9</tspan></text>
  <text transform="matrix(.26458 0 0 .26458 145.51 91.28)" x="2.183217" y="16.947763" enable-background="new" filter="url(#filter8622-4)" style="font-feature-settings:normal;font-variant-caps:normal;font-variant-ligatures:normal;font-variant-numeric:normal;line-height:125%" xml:space="preserve"><tspan x="2.183217" y="16.947763">10</tspan></text>
 </g>
</svg>
